<svg width="45" height="14" viewBox="0 0 45 14" fill="none" xmlns="http://www.w3.org/2000/svg">
<path d="M32.7094 0.572214C31.6621 0.188132 30.5562 -0.00553219 29.4427 0.000120249C25.8469 0.000120249 23.3058 1.84337 23.2903 4.48128C23.2608 6.42012 25.0917 7.51295 26.4755 8.16636C27.8972 8.83547 28.3725 9.25206 28.3655 9.84555C28.3584 10.76 27.2292 11.1681 26.19 11.1681C24.7458 11.1681 23.9625 10.9683 22.7545 10.4547L22.3059 10.2393L21.7941 13.2867C22.673 13.6505 24.248 13.97 25.8736 14C29.7042 14 32.2017 12.1724 32.2298 9.35477C32.2594 7.80969 31.2792 6.63697 29.1909 5.66969C27.9309 5.04624 27.142 4.62109 27.142 3.98195C27.142 3.41699 27.8156 2.82349 29.2219 2.82349C30.1551 2.79978 31.0829 2.97423 31.9458 3.33567L32.2903 3.49117L32.7952 0.556521L32.7094 0.572214ZM42.0567 0.25264H39.2442C38.3653 0.25264 37.7128 0.490893 37.3247 1.37543L31.9191 13.806H35.7427L36.5133 11.7701L41.1778 11.7773C41.2945 12.2523 41.6236 13.8045 41.6236 13.8045H45L42.0567 0.25264ZM18.1125 0.14136H21.7533L19.4752 13.7004H15.8344L18.1125 0.134227V0.14136ZM8.85516 7.60853L9.22781 9.49601L12.7941 0.25264H16.6542L10.9111 13.7831H7.06781L3.91781 2.32559C3.89368 2.23041 3.85068 2.14123 3.79145 2.06347C3.73221 1.98571 3.65798 1.92102 3.57328 1.87333C2.44179 1.27629 1.24148 0.824366 0 0.527987L0.0435937 0.244081H5.9175C6.70922 0.274041 7.35328 0.527987 7.57266 1.38969L8.85516 7.61567V7.60853ZM37.5511 8.99811L39.0094 5.20175C38.9869 5.23741 39.3089 4.42136 39.4917 3.90776L39.7406 5.07335L40.5844 8.98955H37.5511V8.99811Z" fill="white"/>
</svg>
